<?xml version="1.0" standalone="no"?>
<!DOCTYPE svg PUBLIC "-//W3C//DTD SVG 20010904//EN"
 "http://www.w3.org/TR/2001/REC-SVG-20010904/DTD/svg10.dtd">
<svg version="1.0" xmlns="http://www.w3.org/2000/svg"
 width="2188.000000pt" height="2048.000000pt" viewBox="0 0 2188.000000 2048.000000"
 preserveAspectRatio="xMidYMid meet">

<g transform="translate(0.000000,2048.000000) scale(0.100000,-0.100000)"
fill="#000000" stroke="none">
<path d="M6330 15069 c-36 -5 -184 -25 -330 -44 -1058 -141 -2063 -377 -2615
-615 l-49 -21 94 -45 c877 -418 2437 -692 4550 -799 1296 -65 3004 -71 4315
-15 2282 98 3911 369 4848 807 53 26 97 49 97 52 0 4 -55 29 -122 55 -522 208
-1299 396 -2208 536 -171 26 -732 100 -760 100 -5 0 -10 -15 -10 -33 0 -37
-16 -98 -28 -106 -5 -3 -16 -26 -26 -51 -37 -97 -100 -186 -205 -291 -58 -58
-113 -106 -121 -106 -8 0 -58 -29 -110 -65 -151 -102 -563 -300 -590 -283 -5
3 -45 -8 -91 -25 -191 -69 -619 -184 -651 -174 -14 4 -18 2 -14 -5 4 -6 1 -9
-7 -5 -8 3 -97 -11 -198 -31 -332 -64 -725 -115 -1134 -145 -235 -18 -906 -24
-1160 -11 -523 27 -983 82 -1392 165 -68 14 -129 23 -136 21 -25 -10 -588 142
-702 189 -18 8 -35 11 -37 6 -5 -12 -280 102 -415 171 -65 34 -156 86 -203
116 -46 31 -90 56 -96 57 -26 4 -166 130 -223 201 -64 79 -125 182 -136 227
-4 16 -11 26 -16 23 -9 -6 -24 43 -35 113 -4 23 -9 41 -13 41 -3 -1 -35 -5
-71 -10z"/>
<path d="M2810 1577 c28 -32 530 -293 755 -392 738 -326 1643 -598 2665 -801
173 -35 665 -124 682 -124 5 0 29 -21 55 -47 35 -37 41 -41 28 -18 l-18 30 22
-20 c13 -11 54 -61 93 -112 l71 -93 3252 0 3252 0 71 93 c39 51 80 101 93 112
l22 20 -18 -30 c-13 -23 -7 -19 28 17 26 27 50 48 55 48 39 0 667 119 956 181
1099 236 2044 553 2771 928 191 99 397 217 360 207 -11 -3 -85 -26 -165 -51
-2681 -846 -6658 -1167 -10345 -834 -1667 150 -3182 427 -4427 810 -125 38
-236 72 -245 76 -10 3 -16 3 -13 0z"/>
<path d="M7025 140 c10 -11 20 -20 22 -20 2 0 -1 9 -7 20 -6 11 -16 20 -22 20
-6 0 -3 -9 7 -20z"/>
<path d="M13789 138 c-12 -23 -12 -23 10 -4 23 21 26 26 11 26 -5 0 -15 -10
-21 -22z"/>
</g>
</svg>
